<svg width="300" height="300" viewBox="0 0 300 300" fill="none" xmlns="http://www.w3.org/2000/svg">
<path d="M170.521 114.5C178.794 114.5 185.5 121.206 185.5 129.479V170.521C185.5 178.794 178.794 185.5 170.521 185.5H129.479C121.206 185.5 114.5 178.794 114.5 170.521V129.479C114.5 121.206 121.206 114.5 129.479 114.5H170.521ZM128.971 124.078V124.183C131.452 124.238 133.447 126.268 133.447 128.763V174.36C133.447 175.51 134.38 176.442 135.53 176.442H145.42C146.57 176.442 147.502 175.51 147.502 174.36L147.501 133.239C147.445 128.17 143.319 124.078 138.236 124.078H128.971ZM150 150C152.472 150 154.477 152.004 154.477 154.477V171.966C154.477 174.438 152.472 176.442 150 176.442H159.37C164.43 176.442 168.531 172.341 168.531 167.281V159.161C168.531 154.102 164.43 150 159.37 150H150Z" fill="#57585F"/>
</svg>
