<svg width="300" height="300" viewBox="0 0 300 300" fill="none" xmlns="http://www.w3.org/2000/svg">
<path d="M150 108.5C172.92 108.5 191.5 127.08 191.5 150C191.5 172.92 172.92 191.5 150 191.5C127.08 191.5 108.5 172.92 108.5 150C108.5 127.08 127.08 108.5 150 108.5ZM120.12 132.409V166.948L150.031 184.218L179.943 166.948V132.409L150.031 115.14L120.12 132.409ZM170.428 168.608L150.031 180.384L129.635 168.608H170.428ZM176.623 165.031L176.179 165.288H126.314L176.623 136.242V165.031ZM174.962 133.367L124.656 162.412L149.588 119.229L150.031 118.973L174.962 133.367ZM123.44 157.877V134.325L143.836 122.55L123.44 157.877Z" fill="#57585F"/>
</svg>
