<svg width="107" height="122" viewBox="0 0 107 122" fill="none" xmlns="http://www.w3.org/2000/svg">
<path d="M52.0103 0.269157C52.7912 -0.114934 53.7167 -0.0881236 54.477 0.350722L105.023 29.5335C105.834 30.0017 106.333 30.8673 106.333 31.8036V90.1692C106.333 91.1055 105.834 91.971 105.023 92.4392L54.477 121.622C53.6661 122.09 52.6669 122.09 51.856 121.622L1.30996 92.4392C0.49918 91.971 2.73036e-06 91.1054 0 90.1692V31.8036C0 30.8673 0.49918 30.0017 1.30996 29.5335L51.856 0.350722L52.0103 0.269157ZM53.166 116.325L93.9311 92.7901H12.4029L53.166 116.325ZM12.5562 87.5482H101.091V35.9389L12.5562 87.5482ZM9.99227 82.9747L98.1224 31.6021L53.9758 6.11436L9.99227 82.9747ZM5.24182 33.317V80.7223L45.7553 9.92534L5.24182 33.317Z" fill="url(#paint0_linear_1250_12734)"/>
<defs>
<linearGradient id="paint0_linear_1250_12734" x1="17.665" y1="121.973" x2="88.668" y2="-4.01437e-06" gradientUnits="userSpaceOnUse">
<stop stop-color="#555555"/>
<stop offset="1" stop-color="#959595"/>
</linearGradient>
</defs>
</svg>
