<svg width="120" height="69" viewBox="0 0 120 69" fill="none" xmlns="http://www.w3.org/2000/svg">
<g clip-path="url(#clip0_1187_16285)">
<path d="M109.114 0.00244141L85.8104 23.2622L78.0808 30.9809C77.9227 31.1444 77.7101 31.2208 77.503 31.2208C77.2958 31.2208 77.0833 31.1444 76.9252 30.9809C76.6036 30.6647 76.6036 30.1469 76.9252 29.8253L85.8104 20.9564L106.797 0.00244141H109.114Z" fill="white"/>
<path d="M119.999 0.00244141V1.17987L86.938 34.197L84.1143 37.0152C83.9508 37.1733 83.7436 37.2551 83.5365 37.2551C83.3294 37.2551 83.1168 37.1733 82.9532 37.0152C82.6371 36.6936 82.6371 36.1758 82.9587 35.8596L85.8096 33.0142L118.865 0.00244141H119.999Z" fill="white"/>
<path d="M119.999 10.9243V13.2356L99.007 34.195L90.1435 43.0421C89.9855 43.2056 89.7729 43.2819 89.5657 43.2819C89.3586 43.2819 89.146 43.2056 88.9879 43.0421C88.6663 42.7259 88.6663 42.208 88.9879 41.8864L96.6903 34.195L119.999 10.9243Z" fill="white"/>
<path d="M97.0396 0.00244141L85.8103 11.2153L72.0518 24.952C71.8883 25.1101 71.6811 25.1919 71.474 25.1919C71.2669 25.1919 71.0543 25.1101 70.8907 24.952C70.5746 24.6304 70.5746 24.1126 70.8962 23.7964L85.8103 8.90405L94.7228 0.00244141H97.0396Z" fill="white"/>
<path d="M119.999 22.9785V25.2898L111.075 34.1968L96.1722 49.0783C96.0141 49.2364 95.8069 49.3181 95.5944 49.3181C95.3818 49.3181 95.1801 49.2364 95.0165 49.0783C94.7004 48.7567 94.7004 48.2388 95.0165 47.9226L108.764 34.1968L119.999 22.9785Z" fill="white"/>
<path d="M0.00012207 57.5125L23.3525 34.1982L29.4032 28.1585C29.7194 27.8368 29.7248 27.319 29.4032 26.9974C29.0816 26.6812 28.5638 26.6812 28.2476 26.9974L21.0358 34.1982L0.00012207 55.2012V57.5125Z" fill="white"/>
<path d="M35.4321 34.1869L34.1893 35.4297L1.1721 68.3978H0.00012207V67.2586L33.11 34.1978L34.2765 33.0312C34.5981 32.7096 35.116 32.7096 35.4321 33.0312C35.7537 33.3529 35.7537 33.8707 35.4321 34.1869Z" fill="white"/>
<path d="M41.4669 40.2219L34.1897 47.4882L13.2412 68.3985H10.9299L34.1897 45.1715L40.3112 39.0609C40.6274 38.7447 41.1453 38.7447 41.4669 39.0609C41.7885 39.3825 41.783 39.9003 41.4669 40.2219Z" fill="white"/>
<path d="M23.3689 22.121L11.2784 34.1951L0.00012207 45.457V43.1458L8.96714 34.1951L22.2133 20.9653C22.5349 20.6437 23.0527 20.6437 23.3689 20.9653C23.6905 21.2869 23.6905 21.8048 23.3689 22.121Z" fill="white"/>
<path d="M47.494 46.2504L34.1879 59.5346L25.3136 68.3981H23.0023L34.1879 57.2288L46.3384 45.0947C46.66 44.7731 47.1778 44.7731 47.494 45.0947C47.8156 45.4163 47.8156 45.9342 47.494 46.2504Z" fill="white"/>
<path d="M68.3784 2.18727V17.4448L54.8216 31.0017C52.7775 33.0458 51.6273 35.8204 51.6273 38.7095V50.9471L34.1893 68.3851V34.196H0.00012207L30.9949 3.20117C33.0391 1.15701 35.8137 0.00683594 38.7028 0.00683594H66.198C67.4027 0.00683594 68.3784 0.982579 68.3784 2.18727Z" fill="white"/>
<path d="M120.001 34.196L89.0057 65.1908C86.9616 67.235 84.187 68.3851 81.2979 68.3851H53.8081C52.6034 68.3851 51.6277 67.4094 51.6277 66.2047V50.9471L65.1845 37.3903C67.2287 35.3462 68.3788 32.5716 68.3788 29.6825V17.4448L85.8114 0.00683594V34.196H120.001Z" fill="white"/>
</g>
<defs>
<clipPath id="clip0_1187_16285">
<rect width="120" height="68.3947" fill="white"/>
</clipPath>
</defs>
</svg>
