<svg width="300" height="300" viewBox="0 0 300 300" fill="none" xmlns="http://www.w3.org/2000/svg">
<g clip-path="url(#clip0_676_40250)">
<path d="M189.697 122.325L170.86 141.144L164.612 147.388C164.484 147.521 164.313 147.582 164.145 147.582C163.978 147.582 163.806 147.521 163.678 147.388C163.418 147.133 163.418 146.714 163.678 146.453L170.86 139.278L187.825 122.325H189.697Z" fill="#667E77"/>
<path d="M198.495 122.325V123.278L171.771 149.99L169.488 152.271C169.356 152.398 169.189 152.465 169.021 152.465C168.854 152.465 168.682 152.398 168.55 152.271C168.294 152.01 168.294 151.591 168.554 151.336L170.859 149.033L197.578 122.325H198.495Z" fill="#667E77"/>
<path d="M198.502 131.16V133.03L181.533 149.987L174.369 157.145C174.241 157.277 174.069 157.339 173.902 157.339C173.734 157.339 173.562 157.277 173.434 157.145C173.175 156.889 173.175 156.47 173.434 156.21L179.661 149.987L198.502 131.16Z" fill="#667E77"/>
<path d="M179.938 122.325L170.861 131.397L159.74 142.511C159.608 142.639 159.44 142.705 159.273 142.705C159.105 142.705 158.933 142.639 158.801 142.511C158.546 142.25 158.546 141.831 158.806 141.576L170.861 129.527L178.066 122.325H179.938Z" fill="#667E77"/>
<path d="M198.493 140.916V142.786L191.28 149.992L179.233 162.032C179.105 162.16 178.938 162.226 178.766 162.226C178.594 162.226 178.431 162.16 178.299 162.032C178.043 161.772 178.043 161.353 178.299 161.097L189.412 149.992L198.493 140.916Z" fill="#667E77"/>
<path d="M101.502 168.852L120.379 149.989L125.27 145.103C125.526 144.843 125.53 144.424 125.27 144.163C125.01 143.908 124.591 143.908 124.336 144.163L118.506 149.989L101.502 166.982V168.852Z" fill="#667E77"/>
<path d="M130.146 149.982L129.142 150.988L102.453 177.661H101.505V176.739L128.269 149.991L129.212 149.047C129.472 148.787 129.891 148.787 130.146 149.047C130.406 149.308 130.406 149.727 130.146 149.982Z" fill="#667E77"/>
<path d="M135.01 154.854L129.128 160.732L112.194 177.65H110.326L129.128 158.858L134.076 153.914C134.332 153.658 134.75 153.658 135.01 153.914C135.27 154.174 135.266 154.593 135.01 154.854Z" fill="#667E77"/>
<path d="M120.395 140.219L110.622 149.987L101.505 159.099V157.229L108.754 149.987L119.461 139.284C119.721 139.024 120.14 139.024 120.395 139.284C120.655 139.544 120.655 139.963 120.395 140.219Z" fill="#667E77"/>
<path d="M139.89 159.741L129.135 170.489L121.961 177.66H120.093L129.135 168.623L138.956 158.806C139.216 158.546 139.635 158.546 139.89 158.806C140.15 159.066 140.15 159.485 139.89 159.741Z" fill="#667E77"/>
<path d="M156.775 124.094V136.439L145.817 147.408C144.164 149.062 143.235 151.307 143.235 153.644V163.546L129.139 177.655V149.992H101.503L126.557 124.915C128.209 123.261 130.452 122.33 132.787 122.33H155.013C155.986 122.33 156.775 123.119 156.775 124.094Z" fill="#667E77"/>
<path d="M198.502 149.992L173.448 175.07C171.795 176.724 169.552 177.655 167.217 177.655H144.996C144.022 177.655 143.234 176.865 143.234 175.891V163.546L154.192 152.577C155.844 150.923 156.774 148.678 156.774 146.341V136.439L170.865 122.33V149.992H198.502Z" fill="#667E77"/>
</g>
<defs>
<clipPath id="clip0_676_40250">
<rect width="97" height="55.3379" fill="white" transform="translate(101.5 122.331)"/>
</clipPath>
</defs>
</svg>
