<svg width="465" height="112" viewBox="0 0 465 112" fill="none" xmlns="http://www.w3.org/2000/svg">
<path fill-rule="evenodd" clip-rule="evenodd" d="M46.7556 100.307L61.7159 104.864L29.4508 110.981C21.7655 112.41 14.3732 107.392 12.9006 99.7575L0.25536 33.3224C-1.21723 25.6884 3.83061 18.2961 11.4939 16.8602L51.0048 9.3873L31.7293 72.1666C28.0808 84.0499 34.8283 96.6805 46.7556 100.314L46.7556 100.307Z" fill="#4B4B4B"/>
<path fill-rule="evenodd" clip-rule="evenodd" d="M72.7934 36.3116L68.2657 42.2972C67.5551 43.2569 66.3096 43.6452 65.174 43.3009L50.8071 38.9271L59.7012 9.95878C59.7672 9.74632 59.8331 9.52653 59.9284 9.32139" fill="#4B4B4B"/>
<path fill-rule="evenodd" clip-rule="evenodd" d="M127.345 30.5604L118.612 59.0159L102.436 54.0926C101.109 53.6896 99.6515 54.0926 98.7357 55.1476L94.2813 60.2174C92.7428 61.9611 89.8636 61.1991 89.38 58.928L83.5336 31.8132C83.2699 30.4652 82.2295 29.4102 80.8448 29.1098C79.5115 28.8241 78.1121 29.3369 77.2696 30.4359L72.8005 36.3262L68.2729 42.3119C67.5622 43.2716 66.3167 43.6599 65.1812 43.3156L50.8142 38.9417L59.7084 9.97345C59.7743 9.76099 59.8403 9.5412 59.9355 9.33606C62.4558 2.29546 70.1264 -1.58749 77.3722 0.61773L117.96 12.9772C125.426 15.2484 129.638 23.1315 127.352 30.5678L127.345 30.5604Z" fill="#4B4B4B"/>
<path fill-rule="evenodd" clip-rule="evenodd" d="M116.539 65.7487L107.491 95.2226C105.205 102.659 97.2925 106.849 89.827 104.578L49.2391 92.2188C41.7736 89.9477 37.561 82.0645 39.8468 74.6283L48.7409 45.6673L67.3571 51.3379C68.7931 51.7775 70.3097 51.2647 71.2035 50.0924L74.5809 45.638L78.2514 40.8026L85.1308 72.7454C85.3946 74.0055 86.3323 74.9946 87.5485 75.3682L87.7097 75.4195C88.9991 75.7565 90.3618 75.3462 91.241 74.3132L102.546 61.4921L116.531 65.7487L116.539 65.7487Z" fill="#4B4B4B"/>
<path d="M418.724 59.6994C417.893 57.8106 416.986 55.6951 416.004 53.353C415.097 51.0109 414.115 48.3288 413.057 45.3067C412.075 42.2846 411.018 38.8469 409.884 34.9938C408.827 31.065 407.693 26.5697 406.484 21.5077C407.542 20.4499 408.94 19.5433 410.678 18.7878C412.491 17.9567 414.455 17.5412 416.571 17.5412C419.215 17.5412 421.406 18.1078 423.144 19.2411C424.881 20.2988 426.166 22.3387 426.997 25.3608L435.95 56.5262H436.403C437.31 53.9574 438.179 51.162 439.01 48.1399C439.916 45.1178 440.785 42.0201 441.616 38.8469C442.447 35.5982 443.203 32.3872 443.883 29.214C444.638 25.9653 445.281 22.7921 445.809 19.6944C448.529 18.2589 451.514 17.5412 454.762 17.5412C457.407 17.5412 459.598 18.1078 461.335 19.2411C463.073 20.3744 463.942 22.3387 463.942 25.1342C463.942 27.1741 463.678 29.554 463.149 32.2739C462.62 34.9182 461.902 37.7514 460.995 40.7735C460.164 43.7956 459.144 46.9311 457.936 50.1798C456.802 53.353 455.593 56.4884 454.309 59.5861C453.025 62.6837 451.702 65.6303 450.343 68.4257C448.983 71.1456 447.66 73.6011 446.376 75.7921C444.261 79.4941 442.296 82.5162 440.483 84.8584C438.67 87.2005 436.932 89.0137 435.27 90.2981C433.608 91.6581 431.946 92.5647 430.283 93.018C428.621 93.5469 426.884 93.8113 425.07 93.8113C421.897 93.8113 419.328 92.8669 417.364 90.9781C415.4 89.0893 414.229 86.6338 413.851 83.6118C416.268 81.7229 418.686 79.6075 421.104 77.2653C423.521 74.9988 425.712 72.6567 427.677 70.239C426.392 69.8612 424.995 68.9924 423.484 67.6324C422.048 66.1969 420.462 63.5526 418.724 59.6994Z" fill="#4B4B4B"/>
<path d="M373.929 16.9744C378.462 16.9744 382.655 17.5789 386.508 18.7877C390.437 19.921 393.799 21.6965 396.594 24.1141C399.39 26.5318 401.581 29.5917 403.167 33.2938C404.754 36.9203 405.547 41.2645 405.547 46.3266C405.547 51.1619 404.867 55.3929 403.507 59.0194C402.147 62.6459 400.221 65.7058 397.728 68.199C395.234 70.6167 392.212 72.4299 388.661 73.6388C385.186 74.8476 381.295 75.452 376.988 75.452C373.74 75.452 370.718 74.9609 367.922 73.9787V92.7913C367.167 93.0179 365.958 93.2446 364.296 93.4713C362.633 93.7735 360.934 93.9246 359.196 93.9246C357.534 93.9246 356.023 93.8113 354.663 93.5846C353.378 93.3579 352.283 92.9046 351.376 92.2246C350.469 91.5447 349.79 90.6003 349.336 89.3914C348.883 88.2581 348.656 86.7471 348.656 84.8583V30.4606C348.656 28.4206 349.072 26.7585 349.903 25.4741C350.809 24.1897 352.018 23.0186 353.529 21.9609C355.871 20.4499 358.78 19.241 362.256 18.3344C365.731 17.4278 369.622 16.9744 373.929 16.9744ZM374.155 60.266C381.937 60.266 385.828 55.6195 385.828 46.3266C385.828 41.4912 384.846 37.9025 382.881 35.5603C380.993 33.2182 378.235 32.0472 374.609 32.0472C373.173 32.0472 371.889 32.236 370.755 32.6138C369.622 32.916 368.64 33.2938 367.809 33.7471V58.6794C368.715 59.1327 369.698 59.5105 370.755 59.8127C371.813 60.1149 372.946 60.266 374.155 60.266Z" fill="#4B4B4B"/>
<path d="M311.036 16.9745C315.569 16.9745 319.762 17.5789 323.615 18.7877C327.544 19.921 330.906 21.6965 333.702 24.1142C336.497 26.5319 338.688 29.5917 340.275 33.2938C341.861 36.9203 342.655 41.2646 342.655 46.3266C342.655 51.162 341.975 55.3929 340.615 59.0194C339.255 62.6459 337.328 65.7058 334.835 68.199C332.342 70.6167 329.32 72.43 325.769 73.6388C322.293 74.8476 318.402 75.4521 314.096 75.4521C310.847 75.4521 307.825 74.961 305.03 73.9788V92.7913C304.274 93.018 303.065 93.2446 301.403 93.4713C299.741 93.7735 298.041 93.9246 296.303 93.9246C294.641 93.9246 293.13 93.8113 291.77 93.5846C290.486 93.358 289.39 92.9047 288.484 92.2247C287.577 91.5447 286.897 90.6003 286.444 89.3915C285.99 88.2582 285.764 86.7471 285.764 84.8583V30.4606C285.764 28.4207 286.179 26.7585 287.01 25.4741C287.917 24.1897 289.126 23.0187 290.637 21.9609C292.979 20.4499 295.888 19.2411 299.363 18.3344C302.839 17.4278 306.729 16.9745 311.036 16.9745ZM311.263 60.266C319.045 60.266 322.935 55.6195 322.935 46.3266C322.935 41.4912 321.953 37.9025 319.989 35.5604C318.1 33.2183 315.342 32.0472 311.716 32.0472C310.28 32.0472 308.996 32.2361 307.863 32.6138C306.729 32.916 305.747 33.2938 304.916 33.7471V58.6794C305.823 59.1327 306.805 59.5105 307.863 59.8127C308.92 60.1149 310.054 60.266 311.263 60.266Z" fill="#4B4B4B"/>
<path d="M182.641 16.9745C187.175 16.9745 191.368 17.5789 195.221 18.7877C199.15 19.921 202.512 21.6965 205.307 24.1142C208.103 26.5319 210.294 29.5917 211.88 33.2938C213.467 36.9203 214.26 41.2646 214.26 46.3266C214.26 51.162 213.58 55.3929 212.22 59.0194C210.86 62.6459 208.934 65.7058 206.44 68.199C203.947 70.6167 200.925 72.43 197.374 73.6388C193.899 74.8476 190.008 75.4521 185.701 75.4521C182.453 75.4521 179.43 74.961 176.635 73.9788V92.7913C175.879 93.018 174.671 93.2446 173.008 93.4713C171.346 93.7735 169.646 93.9246 167.909 93.9246C166.247 93.9246 164.736 93.8113 163.376 93.5846C162.091 93.358 160.996 92.9047 160.089 92.2247C159.182 91.5447 158.502 90.6003 158.049 89.3915C157.596 88.2582 157.369 86.7471 157.369 84.8583V30.4606C157.369 28.4207 157.785 26.7585 158.616 25.4741C159.522 24.1897 160.731 23.0187 162.242 21.9609C164.584 20.4499 167.493 19.2411 170.969 18.3344C174.444 17.4278 178.335 16.9745 182.641 16.9745ZM182.868 60.266C190.65 60.266 194.541 55.6195 194.541 46.3266C194.541 41.4912 193.559 37.9025 191.594 35.5604C189.706 33.2183 186.948 32.0472 183.321 32.0472C181.886 32.0472 180.602 32.2361 179.468 32.6138C178.335 32.916 177.353 33.2938 176.522 33.7471V58.6794C177.428 59.1327 178.41 59.5105 179.468 59.8127C180.526 60.1149 181.659 60.266 182.868 60.266Z" fill="#4B4B4B"/>
<path d="M279.765 46.2132C279.765 50.8975 279.047 55.0906 277.612 58.7927C276.176 62.4192 274.136 65.4791 271.492 67.9723C268.923 70.4656 265.826 72.3544 262.199 73.6388C258.573 74.9231 254.531 75.5653 250.073 75.5653C245.615 75.5653 241.573 74.8854 237.947 73.5254C234.32 72.1655 231.185 70.2389 228.541 67.7457C225.972 65.1769 223.97 62.0792 222.534 58.4527C221.099 54.8262 220.381 50.7464 220.381 46.2132C220.381 41.7556 221.099 37.7136 222.534 34.0871C223.97 30.4606 225.972 27.4007 228.541 24.9074C231.185 22.3387 234.32 20.3743 237.947 19.0144C241.573 17.6544 245.615 16.9744 250.073 16.9744C254.531 16.9744 258.573 17.6922 262.199 19.1277C265.826 20.4876 268.923 22.452 271.492 25.0208C274.136 27.514 276.176 30.5739 277.612 34.2004C279.047 37.8269 279.765 41.8312 279.765 46.2132ZM240.1 46.2132C240.1 50.8219 240.969 54.3729 242.707 56.8661C244.52 59.2838 247.013 60.4926 250.186 60.4926C253.359 60.4926 255.777 59.246 257.439 56.7528C259.177 54.2596 260.046 50.7464 260.046 46.2132C260.046 41.6801 259.177 38.2047 257.439 35.787C255.702 33.2938 253.246 32.0472 250.073 32.0472C246.9 32.0472 244.444 33.2938 242.707 35.787C240.969 38.2047 240.1 41.6801 240.1 46.2132Z" fill="#4B4B4B"/>
</svg>
