<svg width="300" height="300" viewBox="0 0 300 300" fill="none" xmlns="http://www.w3.org/2000/svg">
<path fill-rule="evenodd" clip-rule="evenodd" d="M62.1459 171.17L69.2319 173.328L53.9494 176.226C50.3093 176.902 46.8079 174.525 46.1104 170.91L40.121 139.442C39.4235 135.827 41.8144 132.325 45.4441 131.645L64.1585 128.105L55.0286 157.841C53.3005 163.47 56.4965 169.452 62.1459 171.173L62.1459 171.17Z" fill="#6E8785"/>
<path fill-rule="evenodd" clip-rule="evenodd" d="M74.4787 140.858L72.3342 143.693C71.9976 144.148 71.4077 144.332 70.8698 144.169L64.0649 142.097L68.2776 128.376C68.3088 128.276 68.3401 128.171 68.3852 128.074" fill="#6E8785"/>
<path fill-rule="evenodd" clip-rule="evenodd" d="M100.317 138.134L96.1808 151.612L88.5188 149.28C87.8907 149.089 87.2001 149.28 86.7664 149.78L84.6565 152.181C83.9278 153.007 82.5641 152.646 82.335 151.571L79.5659 138.728C79.4409 138.089 78.9482 137.589 78.2923 137.447C77.6608 137.312 76.998 137.555 76.5989 138.075L74.4821 140.865L72.3376 143.7C72.001 144.155 71.4111 144.339 70.8732 144.176L64.0683 142.104L68.281 128.383C68.3122 128.282 68.3435 128.178 68.3886 128.081C69.5823 124.746 73.2155 122.907 76.6475 123.952L95.872 129.806C99.4081 130.882 101.403 134.615 100.321 138.138L100.317 138.134Z" fill="#6E8785"/>
<path fill-rule="evenodd" clip-rule="evenodd" d="M95.1988 154.801L90.9132 168.762C89.8305 172.284 86.0828 174.269 82.5467 173.193L63.3222 167.339C59.7862 166.263 57.7908 162.529 58.8735 159.007L63.0862 145.29L71.9038 147.975C72.584 148.184 73.3023 147.941 73.7257 147.386L75.3254 145.276L77.0639 142.985L80.3224 158.115C80.4473 158.712 80.8915 159.18 81.4675 159.357L81.5439 159.382C82.1546 159.541 82.8001 159.347 83.2165 158.858L88.5709 152.785L95.1954 154.801L95.1988 154.801Z" fill="#6E8785"/>
<path d="M238.329 151.936C237.935 151.041 237.506 150.039 237.041 148.93C236.611 147.821 236.146 146.55 235.645 145.119C235.18 143.687 234.679 142.059 234.142 140.234C233.641 138.373 233.104 136.244 232.532 133.846C233.033 133.345 233.695 132.916 234.518 132.558C235.377 132.164 236.307 131.968 237.309 131.968C238.562 131.968 239.599 132.236 240.422 132.773C241.246 133.274 241.854 134.24 242.248 135.671L246.488 150.433H246.703C247.132 149.216 247.544 147.892 247.937 146.461C248.367 145.029 248.778 143.562 249.172 142.059C249.566 140.52 249.924 138.999 250.246 137.496C250.603 135.958 250.908 134.455 251.158 132.987C252.446 132.308 253.86 131.968 255.399 131.968C256.651 131.968 257.689 132.236 258.512 132.773C259.335 133.31 259.747 134.24 259.747 135.564C259.747 136.53 259.621 137.657 259.371 138.946C259.12 140.198 258.78 141.54 258.351 142.972C257.957 144.403 257.474 145.888 256.902 147.427C256.365 148.93 255.792 150.415 255.184 151.882C254.576 153.349 253.949 154.745 253.305 156.069C252.661 157.357 252.035 158.52 251.427 159.558C250.425 161.312 249.494 162.743 248.635 163.853C247.776 164.962 246.953 165.821 246.166 166.429C245.379 167.073 244.591 167.503 243.804 167.717C243.017 167.968 242.194 168.093 241.335 168.093C239.832 168.093 238.615 167.646 237.685 166.751C236.754 165.856 236.2 164.693 236.021 163.262C237.166 162.367 238.311 161.365 239.456 160.256C240.601 159.182 241.639 158.073 242.57 156.928C241.961 156.749 241.299 156.338 240.583 155.693C239.904 155.013 239.152 153.761 238.329 151.936Z" fill="#6E8785"/>
<path d="M217.112 131.699C219.259 131.699 221.245 131.985 223.07 132.558C224.931 133.095 226.523 133.936 227.847 135.081C229.171 136.226 230.209 137.675 230.961 139.429C231.712 141.147 232.088 143.204 232.088 145.602C232.088 147.892 231.766 149.896 231.122 151.614C230.478 153.331 229.565 154.781 228.384 155.962C227.203 157.107 225.772 157.966 224.09 158.538C222.444 159.111 220.601 159.397 218.561 159.397C217.022 159.397 215.591 159.165 214.267 158.699V167.61C213.909 167.717 213.336 167.825 212.549 167.932C211.762 168.075 210.957 168.147 210.133 168.147C209.346 168.147 208.63 168.093 207.986 167.986C207.378 167.878 206.859 167.664 206.43 167.342C206 167.019 205.678 166.572 205.463 166C205.249 165.463 205.141 164.747 205.141 163.852V138.087C205.141 137.121 205.338 136.333 205.732 135.725C206.161 135.117 206.734 134.562 207.45 134.061C208.559 133.345 209.937 132.773 211.583 132.343C213.229 131.914 215.072 131.699 217.112 131.699ZM217.219 152.204C220.905 152.204 222.748 150.003 222.748 145.602C222.748 143.312 222.283 141.612 221.352 140.502C220.458 139.393 219.151 138.838 217.434 138.838C216.754 138.838 216.145 138.928 215.609 139.107C215.072 139.25 214.607 139.429 214.213 139.644V151.453C214.642 151.667 215.108 151.846 215.609 151.99C216.11 152.133 216.646 152.204 217.219 152.204Z" fill="#6E8785"/>
<path d="M187.322 131.699C189.469 131.699 191.456 131.985 193.281 132.558C195.141 133.095 196.734 133.936 198.058 135.081C199.382 136.226 200.42 137.675 201.171 139.429C201.923 141.147 202.299 143.204 202.299 145.602C202.299 147.892 201.976 149.896 201.332 151.614C200.688 153.332 199.776 154.781 198.595 155.962C197.414 157.107 195.982 157.966 194.3 158.538C192.654 159.111 190.811 159.397 188.772 159.397C187.233 159.397 185.801 159.165 184.477 158.699V167.61C184.12 167.717 183.547 167.825 182.76 167.932C181.972 168.075 181.167 168.147 180.344 168.147C179.557 168.147 178.841 168.093 178.197 167.986C177.589 167.878 177.07 167.664 176.64 167.342C176.211 167.02 175.889 166.572 175.674 166C175.459 165.463 175.352 164.747 175.352 163.852V138.087C175.352 137.121 175.549 136.333 175.943 135.725C176.372 135.117 176.945 134.562 177.66 134.061C178.77 133.345 180.147 132.773 181.793 132.343C183.44 131.914 185.283 131.699 187.322 131.699ZM187.43 152.204C191.116 152.204 192.959 150.003 192.959 145.602C192.959 143.312 192.493 141.612 191.563 140.502C190.668 139.393 189.362 138.838 187.644 138.838C186.964 138.838 186.356 138.928 185.819 139.107C185.283 139.25 184.817 139.429 184.424 139.644V151.453C184.853 151.667 185.318 151.846 185.819 151.99C186.32 152.133 186.857 152.204 187.43 152.204Z" fill="#6E8785"/>
<path d="M126.508 131.699C128.655 131.699 130.642 131.985 132.467 132.558C134.327 133.095 135.92 133.936 137.244 135.081C138.568 136.226 139.606 137.675 140.357 139.429C141.109 141.147 141.485 143.204 141.485 145.602C141.485 147.892 141.163 149.896 140.518 151.614C139.874 153.331 138.962 154.781 137.781 155.962C136.6 157.107 135.168 157.966 133.487 158.538C131.84 159.111 129.997 159.397 127.958 159.397C126.419 159.397 124.987 159.165 123.663 158.699V167.61C123.306 167.717 122.733 167.825 121.946 167.932C121.158 168.075 120.353 168.147 119.53 168.147C118.743 168.147 118.027 168.093 117.383 167.986C116.775 167.878 116.256 167.664 115.826 167.342C115.397 167.019 115.075 166.572 114.86 166C114.645 165.463 114.538 164.747 114.538 163.852V138.087C114.538 137.121 114.735 136.333 115.129 135.725C115.558 135.117 116.131 134.562 116.846 134.061C117.956 133.345 119.333 132.773 120.979 132.343C122.626 131.914 124.469 131.699 126.508 131.699ZM126.616 152.204C130.302 152.204 132.145 150.003 132.145 145.602C132.145 143.312 131.679 141.612 130.749 140.502C129.854 139.393 128.548 138.838 126.83 138.838C126.15 138.838 125.542 138.928 125.005 139.107C124.469 139.25 124.003 139.429 123.61 139.644V151.453C124.039 151.667 124.504 151.846 125.005 151.99C125.506 152.133 126.043 152.204 126.616 152.204Z" fill="#6E8785"/>
<path d="M172.511 145.548C172.511 147.767 172.171 149.753 171.491 151.506C170.811 153.224 169.845 154.673 168.592 155.854C167.376 157.035 165.909 157.93 164.191 158.538C162.473 159.147 160.559 159.451 158.447 159.451C156.336 159.451 154.421 159.129 152.704 158.485C150.986 157.84 149.501 156.928 148.248 155.747C147.032 154.53 146.083 153.063 145.403 151.345C144.724 149.628 144.384 147.695 144.384 145.548C144.384 143.437 144.724 141.522 145.403 139.805C146.083 138.087 147.032 136.638 148.248 135.457C149.501 134.24 150.986 133.309 152.704 132.665C154.421 132.021 156.336 131.699 158.447 131.699C160.559 131.699 162.473 132.039 164.191 132.719C165.909 133.363 167.376 134.294 168.592 135.51C169.845 136.691 170.811 138.141 171.491 139.858C172.171 141.576 172.511 143.473 172.511 145.548ZM153.724 145.548C153.724 147.731 154.135 149.413 154.958 150.594C155.817 151.739 156.998 152.312 158.501 152.312C160.004 152.312 161.149 151.721 161.936 150.54C162.759 149.359 163.171 147.695 163.171 145.548C163.171 143.401 162.759 141.755 161.936 140.61C161.113 139.429 159.95 138.838 158.447 138.838C156.944 138.838 155.781 139.429 154.958 140.61C154.135 141.755 153.724 143.401 153.724 145.548Z" fill="#6E8785"/>
</svg>