<svg width="300" height="300" viewBox="0 0 300 300" fill="none" xmlns="http://www.w3.org/2000/svg">
<path d="M78.057 145.256C78.0577 140.803 79.5044 136.471 82.1793 132.911C84.8543 129.351 88.6129 126.756 92.8897 125.517C97.1666 124.277 101.73 124.459 105.894 126.037C110.059 127.614 113.598 130.501 115.98 134.263C118.362 138.026 119.458 142.46 119.103 146.898C118.748 151.337 116.961 155.54 114.011 158.876C111.062 162.212 107.108 164.5 102.746 165.395C98.5524 166.256 94.1987 165.785 90.2915 164.056C89.9886 163.921 89.6487 163.891 89.3296 163.98L81.9594 166.046C81.3952 166.204 80.7982 166.202 80.2349 166.041C79.6716 165.88 79.1642 165.565 78.7693 165.132C78.3744 164.699 78.1076 164.165 77.9986 163.589C77.8896 163.014 77.9426 162.419 78.1519 161.872L80.4395 155.888C80.585 155.507 80.5519 155.083 80.3642 154.721C78.8493 151.799 78.0566 148.554 78.057 145.256ZM89.1697 138.893C88.0495 140.021 87.4226 141.547 87.4267 143.136C87.4309 144.725 88.0658 146.247 89.1918 147.369L97.8758 156.056C97.9611 156.142 98.0625 156.21 98.1744 156.257C98.2862 156.303 98.4061 156.327 98.5273 156.327C98.6484 156.327 98.7683 156.303 98.8802 156.257C98.992 156.21 99.0934 156.142 99.1787 156.056L107.818 147.422C108.939 146.295 109.566 144.769 109.561 143.18C109.557 141.591 108.922 140.069 107.796 138.947C107.241 138.388 106.58 137.944 105.853 137.64C105.125 137.337 104.345 137.179 103.557 137.177C102.769 137.175 101.988 137.328 101.259 137.628C100.53 137.928 99.867 138.369 99.3084 138.925C98.8523 139.381 98.113 139.382 97.656 138.927L97.6449 138.916C96.5236 137.79 95.0011 137.155 93.4119 137.151C91.8227 137.146 90.2969 137.773 89.1697 138.893ZM107.98 175.299C105.021 175.301 102.097 174.664 99.4072 173.43C97.4938 172.552 95.7315 171.388 94.1793 169.981C93.6059 169.461 94.1308 168.564 94.8953 168.684C95.3238 168.752 95.7541 168.807 96.1857 168.851C97.3422 168.969 98.458 169.346 99.4719 169.915C102.062 171.367 104.99 172.137 107.98 172.137C110.832 172.137 113.52 171.45 115.892 170.239L115.961 170.203C116.27 170.044 116.629 170.007 116.964 170.101L122.856 171.751C123.944 172.056 124.915 170.991 124.512 169.936L122.663 165.098C122.511 164.701 122.552 164.255 122.774 163.892L122.827 163.804C124.44 161.166 125.373 158.067 125.373 154.743C125.378 151.83 124.647 148.972 123.26 146.431C122.702 145.408 122.336 144.284 122.233 143.123C122.194 142.692 122.144 142.262 122.082 141.833C121.971 141.067 122.874 140.554 123.386 141.133C124.747 142.67 125.873 144.407 126.722 146.288C127.921 148.945 128.539 151.828 128.535 154.743C128.535 158.154 127.702 161.374 126.231 164.209C126.044 164.57 126.01 164.995 126.156 165.375L128.44 171.359C128.65 171.906 128.703 172.501 128.594 173.076C128.485 173.652 128.218 174.186 127.823 174.619C127.428 175.052 126.921 175.367 126.357 175.528C125.794 175.69 125.197 175.691 124.633 175.533L117.264 173.468C116.944 173.378 116.604 173.409 116.3 173.544C113.755 174.673 110.937 175.299 107.977 175.299" fill="#6B8190"/>
<path d="M150.634 151.581H164.234V154.667H150.345L150.634 151.581ZM156.421 134.702L157.723 136.294L148.995 162.48C148.995 162.64 149.139 162.801 149.429 162.962C149.718 163.09 150.104 163.187 150.586 163.251C151.068 163.315 151.599 163.348 152.178 163.348H152.901V166H142.774V163.348H143.063C143.803 163.348 144.381 163.203 144.799 162.914C145.249 162.624 145.619 162.062 145.908 161.226L155.843 131.761H163.125L173.396 161.949C173.621 162.528 173.959 162.914 174.409 163.107C174.859 163.267 175.422 163.348 176.097 163.348H176.338V166H161.774V163.348H162.546C163.06 163.348 163.559 163.332 164.041 163.299C164.555 163.267 164.973 163.219 165.295 163.155C165.648 163.058 165.825 162.962 165.825 162.865L156.421 134.702ZM196.781 141.116V147.482C196.556 147.385 196.283 147.321 195.961 147.289C195.64 147.225 195.302 147.176 194.949 147.144C194.627 147.112 194.306 147.096 193.984 147.096C193.213 147.096 192.505 147.192 191.862 147.385C191.251 147.546 190.673 147.803 190.126 148.157C189.612 148.511 189.146 148.977 188.728 149.555C188.31 150.134 187.908 150.825 187.522 151.629L187.474 148.977C187.956 147.401 188.519 146.019 189.162 144.829C189.837 143.608 190.641 142.659 191.573 141.984C192.537 141.277 193.695 140.923 195.045 140.923C195.431 140.923 195.768 140.939 196.058 140.971C196.379 141.004 196.62 141.052 196.781 141.116ZM178.118 166V163.492H178.166C179.034 163.492 179.742 163.396 180.288 163.203C180.867 162.978 181.156 162.56 181.156 161.949V145.746C181.156 145.36 181.06 145.071 180.867 144.878C180.674 144.653 180.385 144.476 179.999 144.347C179.613 144.219 179.131 144.09 178.552 143.961L178.118 143.865V141.261H187.956V148.832L188.438 148.35V162.48C188.438 162.769 188.615 162.994 188.969 163.155C189.355 163.283 189.805 163.38 190.319 163.444C190.866 163.476 191.348 163.492 191.766 163.492H192.393V166H178.118ZM226.374 153.655C226.374 156.162 225.811 158.397 224.686 160.358C223.561 162.287 221.985 163.798 219.96 164.891C217.934 165.952 215.555 166.482 212.823 166.482C210.122 166.482 207.743 165.952 205.685 164.891C203.66 163.798 202.085 162.287 200.959 160.358C199.834 158.397 199.272 156.162 199.272 153.655C199.272 151.758 199.577 150.022 200.188 148.446C200.831 146.871 201.747 145.521 202.937 144.395C204.158 143.238 205.589 142.354 207.229 141.743C208.9 141.1 210.765 140.779 212.823 140.779C214.848 140.779 216.681 141.1 218.32 141.743C219.992 142.354 221.423 143.238 222.612 144.395C223.834 145.521 224.766 146.871 225.409 148.446C226.052 150.022 226.374 151.758 226.374 153.655ZM206.795 153.655C206.795 155.744 207.02 157.529 207.47 159.007C207.952 160.454 208.643 161.563 209.543 162.335C210.444 163.074 211.537 163.444 212.823 163.444C214.109 163.444 215.186 163.074 216.054 162.335C216.954 161.563 217.645 160.454 218.127 159.007C218.61 157.529 218.851 155.744 218.851 153.655C218.851 151.533 218.61 149.748 218.127 148.302C217.645 146.855 216.954 145.762 216.054 145.022C215.186 144.283 214.109 143.913 212.823 143.913C211.537 143.913 210.444 144.283 209.543 145.022C208.643 145.762 207.952 146.855 207.47 148.302C207.02 149.748 206.795 151.533 206.795 153.655Z" fill="#6B8190"/>
</svg>
